<?xml version="1.0" encoding="UTF-8" standalone="no"?>
<!-- Created with Inkscape (http://www.inkscape.org/) -->
<svg
   xmlns:svg="http://www.w3.org/2000/svg"
   xmlns="http://www.w3.org/2000/svg"
   version="1.0"
   width="744.09448"
   height="1052.3622"
   id="svg2">
  <defs
     id="defs4">
    <marker
       refX="0"
       refY="0"
       orient="auto"
       id="Arrow2Lstart"
       style="overflow:visible">
      <path
         d="M 8.7185878,4.0337352 L -2.2072895,0.016013256 L 8.7185884,-4.0017078 C 6.97309,-1.6296469 6.9831476,1.6157441 8.7185878,4.0337352 z"
         transform="matrix(1.1,0,0,1.1,1.1,0)"
         id="path5110"
         style="font-size:12px;fill-rule:evenodd;stroke-width:0.625;stroke-linejoin:round" />
    </marker>
    <marker
       refX="0"
       refY="0"
       orient="auto"
       id="Arrow2Mend"
       style="overflow:visible">
      <path
         d="M 8.7185878,4.0337352 L -2.2072895,0.016013256 L 8.7185884,-4.0017078 C 6.97309,-1.6296469 6.9831476,1.6157441 8.7185878,4.0337352 z"
         transform="scale(-0.6,-0.6)"
         id="path5119"
         style="font-size:12px;fill-rule:evenodd;stroke-width:0.625;stroke-linejoin:round" />
    </marker>
    <marker
       refX="0"
       refY="0"
       orient="auto"
       id="Arrow2Mend6"
       style="overflow:visible">
      <path
         d="M 8.7185878,4.0337352 L -2.2072895,0.016013256 L 8.7185884,-4.0017078 C 6.97309,-1.6296469 6.9831476,1.6157441 8.7185878,4.0337352 z"
         transform="scale(-0.6,-0.6)"
         id="path28419"
         style="font-size:12px;fill:#000000;fill-rule:evenodd;stroke:#000000;stroke-width:0.625;stroke-linejoin:round" />
    </marker>
  </defs>
  <g
     id="layer1"
     style="opacity:1;display:inline">
    <rect
       width="140.02586"
       height="94.876541"
       x="14.97413"
       y="17.362183"
       id="rect2411"
       style="opacity:1;fill:#c8c8c8;fill-opacity:1;stroke:#000000;stroke-width:0.97413594;stroke-linejoin:miter;stroke-opacity:1" />
    <text
       x="45"
       y="32.362183"
       id="text3219"
       xml:space="preserve"
       style="font-size:12px;font-style:normal;font-variant:normal;font-weight:normal;font-stretch:normal;text-align:start;line-height:125%;writing-mode:lr-tb;text-anchor:start;fill:#000000;fill-opacity:1;stroke:none;stroke-width:1px;stroke-linecap:butt;stroke-linejoin:miter;stroke-opacity:1;font-family:Arial"><tspan
         x="45"
         y="32.362183"
         id="tspan3221">GeoAIDA Core</tspan></text>
    <rect
       width="89.879814"
       height="25.129816"
       x="40.120182"
       y="77.362183"
       id="rect3223"
       style="opacity:1;fill:#bcdbb8;fill-opacity:1;stroke:#000000;stroke-width:1.1201843;stroke-linejoin:miter;stroke-opacity:1" />
    <path
       d="M 51.119141,92.362183 C 51.119141,89.498901 51.119141,86.63562 51.119141,83.772339 C 52.20049,83.495899 52.432561,84.068739 52.255859,85.050351 C 52.255859,87.487628 52.255859,89.924905 52.255859,92.362183 C 51.876953,92.362183 51.498047,92.362183 51.119141,92.362183 z M 54.119141,92.362183 C 54.119141,90.287964 54.119141,88.213745 54.119141,86.139526 C 55.606078,85.634706 54.616646,87.827377 55.841797,86.280151 C 57.491346,84.894212 58.606647,87.970002 59.556636,86.271367 C 61.447981,85.163883 63.000116,87.178384 62.550781,88.985307 C 62.550781,90.110932 62.550781,91.236557 62.550781,92.362183 C 61.464219,92.673131 61.365157,91.99658 61.501953,91.084171 C 61.415052,89.820053 61.716522,88.472836 61.254389,87.280643 C 59.562881,85.987114 58.519326,88.312175 58.871094,89.769358 C 58.871094,90.633633 58.871094,91.497908 58.871094,92.362183 C 57.784861,92.670849 57.676942,92.001201 57.816406,91.084171 C 57.728412,89.813303 58.036736,88.466079 57.558594,87.264526 C 55.664905,85.954259 54.855122,88.65848 55.173828,90.156076 C 55.081081,90.841298 55.354807,91.892994 55.046027,92.362183 C 54.737065,92.362183 54.428103,92.362183 54.119141,92.362183 z M 68.210938,91.594604 C 66.729169,93.541362 62.368193,92.125333 64.239745,89.546755 C 65.101214,88.261658 69.516674,89.324185 67.603391,87.073001 C 66.067553,85.725658 64.722448,89.134429 64.056274,87.599978 C 64.655359,85.543711 68.471679,85.31934 69.136719,87.375854 C 69.363138,89.02703 68.878375,90.790001 69.523438,92.362183 C 68.880015,92.303343 68.100449,92.67002 68.210938,91.594604 z M 68.123047,89.239136 C 66.93495,89.437297 63.493189,90.002239 65.629881,91.606324 C 67.194494,92.019336 68.374063,90.815401 68.123047,89.239136 z M 70.636719,92.877808 C 72.055574,92.806983 72.571785,94.929178 74.222656,93.721558 C 75.005791,93.19972 75.257755,90.679287 74.06152,92.158569 C 71.949196,93.150382 70.034486,90.783783 70.445923,88.779177 C 70.225245,86.233162 73.741871,85.248009 74.9375,86.761725 C 74.565994,85.776283 76.428299,85.915736 75.910156,86.906333 C 75.848393,89.00992 76.060686,91.136152 75.742062,93.220214 C 75.20058,95.511933 70.53549,95.539324 70.636719,92.877808 z M 71.509766,89.139526 C 70.94997,92.331734 75.754504,91.924553 74.917815,88.897828 C 75.026903,86.080712 71.099094,86.410572 71.509766,89.139526 z M 81.769531,90.358276 C 84.265944,90.221413 81.171263,93.2013 79.790527,92.489716 C 76.528766,92.39256 76.209607,86.978301 79.165221,86.120854 C 81.127456,85.414285 83.148019,87.224441 82.894531,89.239136 C 82.631338,89.849095 81.298092,89.366476 80.588251,89.520386 C 79.808183,89.520386 79.028115,89.520386 78.248047,89.520386 C 78.048597,91.648465 81.138131,92.557279 81.769531,90.358276 z M 78.306641,88.653198 C 79.464844,88.653198 80.623047,88.653198 81.78125,88.653198 C 81.814356,86.290695 78.322338,86.307108 78.306641,88.653198 z M 90.453125,89.350464 C 92.451831,89.251199 91.02639,91.353777 90.062834,91.947907 C 88.012354,93.256957 84.762876,92.291837 84.249878,89.759523 C 83.475734,87.480033 84.333591,84.299424 86.960935,83.756232 C 88.783639,83.208705 91.01306,84.173579 91.443359,86.127808 C 89.711025,87.103993 89.665397,83.743713 87.552366,84.628178 C 84.750194,85.039987 84.517752,89.173545 86.165526,90.903932 C 87.663585,92.20606 90.212351,91.415682 90.453125,89.350464 z M 92.837891,92.362183 C 92.837891,89.498901 92.837891,86.63562 92.837891,83.772339 C 93.924123,83.463673 94.032042,84.13332 93.892578,85.050351 C 93.892578,87.487628 93.892578,89.924905 93.892578,92.362183 C 93.541016,92.362183 93.189453,92.362183 92.837891,92.362183 z M 95.539062,84.985229 C 95.377819,84.068127 95.563392,83.497841 96.59375,83.772339 C 96.630358,84.825276 96.788637,85.169614 95.539062,84.985229 z M 95.539062,92.362183 C 95.539062,90.287964 95.539063,88.213745 95.539062,86.139526 C 96.625295,85.83086 96.733214,86.500508 96.59375,87.417538 C 96.59375,89.065753 96.59375,90.713968 96.59375,92.362183 C 96.242187,92.362183 95.890625,92.362183 95.539062,92.362183 z M 102.46484,90.358276 C 104.96126,90.221413 101.86658,93.2013 100.48584,92.489716 C 97.224078,92.39256 96.90492,86.978301 99.860533,86.120854 C 101.82277,85.414285 103.84333,87.224441 103.58984,89.239136 C 103.32665,89.849095 101.9934,89.366476 101.28356,89.520386 C 100.5035,89.520386 99.723427,89.520386 98.943359,89.520386 C 98.743909,91.648465 101.83344,92.557279 102.46484,90.358276 z M 99.001953,88.653198 C 100.16016,88.653198 101.31836,88.653198 102.47656,88.653198 C 102.50967,86.290695 99.017651,86.307108 99.001953,88.653198 z M 104.88477,92.362183 C 104.88477,90.287964 104.88477,88.213745 104.88477,86.139526 C 106.31114,85.514521 105.44233,87.816087 106.43384,86.399449 C 108.18959,85.136399 110.53517,86.841691 109.94141,88.919414 C 109.94141,90.067004 109.94141,91.214593 109.94141,92.362183 C 108.85517,92.670849 108.74725,92.001201 108.88672,91.084171 C 108.79379,89.835033 109.12511,88.486604 108.59228,87.327518 C 106.82557,85.913372 105.53391,88.252133 105.93945,89.858353 C 105.93945,90.692963 105.93945,91.527573 105.93945,92.362183 C 105.58789,92.362183 105.23633,92.362183 104.88477,92.362183 z M 113.86719,91.418823 C 114.65353,93.477568 110.71893,92.193019 111.75781,90.412116 C 111.75781,89.261357 111.75781,88.110598 111.75781,86.959839 C 110.77958,87.467603 110.62531,85.760814 111.62338,86.139526 C 112.09652,85.818597 111.28029,84.506427 112.19552,84.33442 C 113.1682,83.40326 112.70287,85.019198 112.80664,85.627114 C 112.44603,86.725044 114.36553,85.542866 113.86719,86.778532 C 113.40198,87.068084 112.38314,86.803992 112.80664,87.982248 C 112.83156,89.047045 112.75083,90.120075 112.85938,91.178589 C 113.02747,91.569824 113.55578,91.448238 113.86719,91.418823 z"
       id="text3542"
       style="font-size:12px;font-style:normal;font-variant:normal;font-weight:normal;font-stretch:normal;text-align:start;line-height:125%;writing-mode:lr-tb;text-anchor:start;fill:#000000;fill-opacity:1;stroke:none;stroke-width:1px;stroke-linecap:butt;stroke-linejoin:miter;stroke-opacity:1;font-family:Arial" />
    <rect
       width="169.99963"
       height="140.28799"
       x="224.98853"
       y="17.127327"
       id="rect3546"
       style="opacity:1;fill:#bbdab7;fill-opacity:1;stroke:#000000;stroke-width:0.89454889;stroke-linejoin:miter;stroke-miterlimit:4;stroke-dasharray:none;stroke-opacity:1;display:inline" />
    <text
       x="280"
       y="32.362183"
       id="text3548"
       xml:space="preserve"
       style="font-size:12px;font-style:normal;font-variant:normal;font-weight:normal;font-stretch:normal;text-align:start;line-height:125%;writing-mode:lr-tb;text-anchor:start;opacity:1;fill:#000000;fill-opacity:1;stroke:none;stroke-width:1px;stroke-linecap:butt;stroke-linejoin:miter;stroke-opacity:1;display:inline;font-family:Arial"><tspan
         x="280"
         y="32.362183"
         id="tspan3550">ImageServer</tspan></text>
    <rect
       width="114.97952"
       height="24.405476"
       x="270.03061"
       y="62.352039"
       id="rect3552"
       style="opacity:1;fill:#6ad05c;fill-opacity:1;stroke:#000000;stroke-width:0.95980209;stroke-linejoin:miter;stroke-miterlimit:4;stroke-dasharray:none;stroke-opacity:1" />
    <text
       x="275"
       y="77.362183"
       id="text3554"
       xml:space="preserve"
       style="font-size:12px;font-style:normal;font-variant:normal;font-weight:normal;font-stretch:normal;text-align:start;line-height:125%;writing-mode:lr-tb;text-anchor:start;opacity:1;fill:#000000;fill-opacity:1;stroke:none;stroke-width:1px;stroke-linecap:butt;stroke-linejoin:miter;stroke-opacity:1;display:inline;font-family:Arial"><tspan
         x="275"
         y="77.362183"
         id="tspan3556">ImageServerThread</tspan></text>
    <path
       d="M 70,37.37854 L 70,77.362183"
       id="path3560"
       style="fill:#0000c8;fill-opacity:1;fill-rule:evenodd;stroke:#000000;stroke-width:1;stroke-linecap:butt;stroke-linejoin:miter;marker-start:none;marker-end:url(#Arrow2Mend);stroke-miterlimit:4;stroke-dasharray:none;stroke-opacity:1" />
    <text
       x="75"
       y="52.362183"
       id="text6901"
       xml:space="preserve"
       style="font-size:12px;font-style:normal;font-variant:normal;font-weight:normal;font-stretch:normal;text-align:start;line-height:125%;writing-mode:lr-tb;text-anchor:start;fill:#000000;fill-opacity:1;stroke:none;stroke-width:1px;stroke-linecap:butt;stroke-linejoin:miter;stroke-opacity:1;font-family:Arial"><tspan
         x="75"
         y="52.362183"
         id="tspan6903"
         style="font-size:8px;fill:#0000c8;fill-opacity:1">Call</tspan><tspan
         x="75"
         y="62.362183"
         id="tspan6905"
         style="font-size:8px;font-style:italic;fill:#0000c8;fill-opacity:1;-inkscape-font-specification:Arial Italic">&lt;Method&gt;</tspan></text>
    <path
       d="M 155.3759,87.362724 L 225.0969,87.362724"
       id="path6907"
       style="fill:none;fill-opacity:0.75;fill-rule:evenodd;stroke:#0000ff;stroke-width:1;stroke-linecap:butt;stroke-linejoin:miter;marker-mid:none;marker-end:url(#Arrow2Mend);stroke-miterlimit:4;stroke-dasharray:none;stroke-opacity:1" />
    <path
       d="M 130,87.362183 L 155,87.362183"
       id="path7424"
       style="fill:none;fill-opacity:0.75;fill-rule:evenodd;stroke:#000000;stroke-width:1;stroke-linecap:butt;stroke-linejoin:miter;marker-end:none;stroke-miterlimit:4;stroke-dasharray:1, 1;stroke-dashoffset:0;stroke-opacity:1" />
    <text
       x="170"
       y="62.362183"
       id="text7428"
       xml:space="preserve"
       style="font-size:12px;font-style:normal;font-variant:normal;font-weight:normal;font-stretch:normal;text-align:start;line-height:125%;writing-mode:lr-tb;text-anchor:start;opacity:1;fill:#000000;fill-opacity:1;stroke:none;stroke-width:1px;stroke-linecap:butt;stroke-linejoin:miter;stroke-opacity:1;display:inline;font-family:Arial"><tspan
         x="170"
         y="62.362183"
         id="tspan7430"
         style="font-size:8px" /><tspan
         x="170"
         y="72.362183"
         id="tspan7432"
         style="font-size:8px;font-style:normal;fill:#0000c8;fill-opacity:1;-inkscape-font-specification:Arial">Request</tspan><tspan
         x="170"
         y="82.362183"
         id="tspan7436"
         style="font-size:8px;font-style:italic;fill:#0000c8;fill-opacity:1;-inkscape-font-specification:Arial Italic">&lt;Method&gt;</tspan></text>
    <path
       d="M 295.04126,36.842743 L 295.04126,61.680646"
       id="path7438"
       style="opacity:1;fill:none;fill-opacity:0.75;fill-rule:evenodd;stroke:#000000;stroke-width:0.73082268px;stroke-linecap:butt;stroke-linejoin:miter;marker-start:none;marker-end:url(#Arrow2Mend);stroke-opacity:1;display:inline" />
    <text
       x="300.04126"
       y="36.680649"
       id="text7440"
       xml:space="preserve"
       style="font-size:12px;font-style:normal;font-variant:normal;font-weight:normal;font-stretch:normal;text-align:start;line-height:125%;writing-mode:lr-tb;text-anchor:start;opacity:1;fill:#000000;fill-opacity:1;stroke:none;stroke-width:1px;stroke-linecap:butt;stroke-linejoin:miter;stroke-opacity:1;display:inline;font-family:Arial"><tspan
         x="300.04126"
         y="36.680649"
         id="tspan7442"
         style="font-size:8px" /><tspan
         x="300.04126"
         y="46.680649"
         id="tspan7448"
         style="font-size:8px;font-style:normal;fill:#0000c8;fill-opacity:1;-inkscape-font-specification:Arial">Incoming</tspan><tspan
         x="300.04126"
         y="56.680649"
         id="tspan8484"
         style="font-size:8px;font-style:normal;fill:#0000c8;fill-opacity:1;-inkscape-font-specification:Arial">Connection</tspan></text>
    <path
       d="M 295.04126,86.842746 L 295.04126,111.68065"
       id="path8486"
       style="opacity:1;fill:none;fill-opacity:0.75;fill-rule:evenodd;stroke:#000000;stroke-width:0.73082268px;stroke-linecap:butt;stroke-linejoin:miter;marker-start:none;marker-end:url(#Arrow2Mend);stroke-opacity:1;display:inline" />
    <text
       x="300.04126"
       y="86.680649"
       id="text8488"
       xml:space="preserve"
       style="font-size:12px;font-style:normal;font-variant:normal;font-weight:normal;font-stretch:normal;text-align:start;line-height:125%;writing-mode:lr-tb;text-anchor:start;opacity:1;fill:#000000;fill-opacity:1;stroke:none;stroke-width:1px;stroke-linecap:butt;stroke-linejoin:miter;stroke-opacity:1;display:inline;font-family:Arial"><tspan
         x="300.04126"
         y="86.680649"
         id="tspan8490"
         style="font-size:8px" /><tspan
         x="300.04126"
         y="96.680649"
         id="tspan8492"
         style="font-size:8px;font-style:normal;fill:#0000c8;fill-opacity:1;-inkscape-font-specification:Arial">Call</tspan><tspan
         x="300.04126"
         y="106.68065"
         id="tspan8494"
         style="font-size:8px;font-style:italic;fill:#0000c8;fill-opacity:1;-inkscape-font-specification:Arial Italic">&lt;Method&gt;</tspan></text>
    <rect
       width="150.09846"
       height="24.27166"
       x="235"
       y="112.36218"
       id="rect8497"
       style="opacity:1;fill:#75b79c;fill-opacity:1;stroke:#000000;stroke-width:1.09361815;stroke-linejoin:miter;stroke-miterlimit:4;stroke-dasharray:none;stroke-opacity:1;display:inline" />
    <text
       x="260.04126"
       y="126.68065"
       id="text8499"
       xml:space="preserve"
       style="font-size:12px;font-style:normal;font-variant:normal;font-weight:normal;font-stretch:normal;text-align:start;line-height:125%;writing-mode:lr-tb;text-anchor:start;opacity:1;fill:#000000;fill-opacity:1;stroke:none;stroke-width:1px;stroke-linecap:butt;stroke-linejoin:miter;stroke-opacity:1;display:inline;font-family:Arial"><tspan
         x="260.04126"
         y="126.68065"
         id="tspan8501">ImageEngineBase</tspan></text>
    <rect
       width="110.15691"
       height="64.862801"
       x="284.68616"
       y="207.6366"
       id="rect8509"
       style="opacity:1;fill:#bddbb9;fill-opacity:1;stroke:#000000;stroke-width:1.13720191;stroke-linejoin:miter;stroke-miterlimit:4;stroke-dasharray:none;stroke-dashoffset:0;stroke-opacity:1;display:inline" />
    <rect
       width="89.891121"
       height="24.820761"
       x="294.84308"
       y="227.32013"
       id="rect8523"
       style="opacity:0.75;fill:#75b79c;fill-opacity:1;stroke:#000000;stroke-width:0.85584235;stroke-linejoin:miter;stroke-miterlimit:4;stroke-dasharray:none;stroke-opacity:1;display:inline" />
    <text
       x="299.73419"
       y="242.32013"
       id="text8525"
       xml:space="preserve"
       style="font-size:12px;font-style:normal;font-variant:normal;font-weight:normal;font-stretch:normal;text-align:start;line-height:125%;writing-mode:lr-tb;text-anchor:start;opacity:0.75;fill:#000000;fill-opacity:1;stroke:none;stroke-width:1px;stroke-linecap:butt;stroke-linejoin:miter;stroke-opacity:1;display:inline;font-family:Arial"><tspan
         x="299.73419"
         y="242.32013"
         id="tspan8527">ImageEngineC</tspan></text>
    <rect
       width="110.15691"
       height="64.862801"
       x="254.84308"
       y="197.49937"
       id="rect8507"
       style="opacity:0.75;fill:#bddbb9;fill-opacity:1;stroke:#000000;stroke-width:1.13720191;stroke-linejoin:miter;stroke-miterlimit:4;stroke-dasharray:none;stroke-dashoffset:0;stroke-opacity:1;display:inline" />
    <rect
       width="89.891121"
       height="24.820761"
       x="264.84308"
       y="217.49936"
       id="rect8517"
       style="opacity:0.75;fill:#75b79c;fill-opacity:1;stroke:#000000;stroke-width:0.85584235;stroke-linejoin:miter;stroke-miterlimit:4;stroke-dasharray:none;stroke-opacity:1;display:inline" />
    <text
       x="269.73419"
       y="232.32013"
       id="text8519"
       xml:space="preserve"
       style="font-size:12px;font-style:normal;font-variant:normal;font-weight:normal;font-stretch:normal;text-align:start;line-height:125%;writing-mode:lr-tb;text-anchor:start;opacity:0.75;fill:#000000;fill-opacity:1;stroke:none;stroke-width:1px;stroke-linecap:butt;stroke-linejoin:miter;stroke-opacity:1;display:inline;font-family:Arial"><tspan
         x="269.73419"
         y="232.32013"
         id="tspan8521">ImageEngineB</tspan></text>
    <rect
       width="110.02615"
       height="64.863464"
       x="224.81693"
       y="187.63591"
       id="rect8505"
       style="opacity:0.75;fill:#bddbb9;fill-opacity:1;stroke:#000000;stroke-width:1.13653266;stroke-linejoin:miter;stroke-miterlimit:4;stroke-dasharray:none;stroke-dashoffset:0;stroke-opacity:1" />
    <rect
       width="89.891121"
       height="24.820761"
       x="234.73419"
       y="207.49939"
       id="rect8511"
       style="opacity:0.75;fill:#75b79c;fill-opacity:1;stroke:#000000;stroke-width:0.85584235;stroke-linejoin:miter;stroke-miterlimit:4;stroke-dasharray:none;stroke-opacity:1;display:inline" />
    <text
       x="239.73419"
       y="222.32013"
       id="text8513"
       xml:space="preserve"
       style="font-size:12px;font-style:normal;font-variant:normal;font-weight:normal;font-stretch:normal;text-align:start;line-height:125%;writing-mode:lr-tb;text-anchor:start;opacity:1;fill:#000000;fill-opacity:1;stroke:none;stroke-width:1px;stroke-linecap:butt;stroke-linejoin:miter;stroke-opacity:1;display:inline;font-family:Arial"><tspan
         x="239.73419"
         y="222.32013"
         id="tspan8515">ImageEngineA</tspan></text>
    <path
       d="M 294.73419,157.32013 L 294.73419,187.4927"
       id="path8529"
       style="opacity:1;fill:none;fill-opacity:0.75;fill-rule:evenodd;stroke:#000000;stroke-width:1;stroke-linecap:butt;stroke-linejoin:miter;marker-start:none;marker-end:url(#Arrow2Mend);stroke-miterlimit:4;stroke-dasharray:none;stroke-opacity:1;display:inline" />
    <path
       d="M 294.73419,187.32013 L 294.73419,207.32013"
       id="path9050"
       style="fill:none;fill-opacity:0.75;fill-rule:evenodd;stroke:#000000;stroke-width:1;stroke-linecap:butt;stroke-linejoin:miter;marker-end:url(#Arrow2Mend);stroke-miterlimit:4;stroke-dasharray:1, 1;stroke-dashoffset:0;stroke-opacity:1" />
    <text
       x="299.73419"
       y="157.32013"
       id="text9567"
       xml:space="preserve"
       style="font-size:12px;font-style:normal;font-variant:normal;font-weight:normal;font-stretch:normal;text-align:start;line-height:125%;writing-mode:lr-tb;text-anchor:start;opacity:1;fill:#000000;fill-opacity:1;stroke:none;stroke-width:1px;stroke-linecap:butt;stroke-linejoin:miter;stroke-opacity:1;display:inline;font-family:Arial"><tspan
         x="299.73419"
         y="157.32013"
         id="tspan9569"
         style="font-size:8px" /><tspan
         x="299.73419"
         y="167.32013"
         id="tspan9571"
         style="font-size:8px;font-style:normal;fill:#0000c8;fill-opacity:1;-inkscape-font-specification:Arial">Call inherited</tspan><tspan
         x="299.73419"
         y="177.32013"
         id="tspan9573"
         style="font-size:8px;font-style:italic;fill:#0000c8;fill-opacity:1;-inkscape-font-specification:Arial Italic">&lt;Method&gt;</tspan></text>
    <path
       d="M 295,137.36218 L 295,157.36218"
       id="path9575"
       style="opacity:1;fill:none;fill-opacity:0.75;fill-rule:evenodd;stroke:#000000;stroke-width:1;stroke-linecap:butt;stroke-linejoin:miter;marker-end:none;stroke-miterlimit:4;stroke-dasharray:1, 1;stroke-dashoffset:0;stroke-opacity:1;display:inline" />
    <path
       d="M 265,207.36218 L 265,187.36218"
       id="path11723"
       style="fill:none;fill-opacity:0.75;fill-rule:evenodd;stroke:#000000;stroke-width:1;stroke-linecap:butt;stroke-linejoin:miter;marker-end:none;stroke-miterlimit:4;stroke-dasharray:1, 1;stroke-dashoffset:0;stroke-opacity:1" />
    <path
       d="M 265,157.36218 L 265,137.36218"
       id="path11725"
       style="fill:none;fill-opacity:0.75;fill-rule:evenodd;stroke:#000000;stroke-width:1;stroke-linecap:butt;stroke-linejoin:miter;marker-end:url(#Arrow2Mend);stroke-miterlimit:4;stroke-dasharray:1, 1;stroke-dashoffset:0;stroke-opacity:1" />
    <path
       d="M 265,112.36218 L 265,92.362183 L 225,92.362183"
       id="path11727"
       style="fill:none;fill-opacity:0.75;fill-rule:evenodd;stroke:#000000;stroke-width:1;stroke-linecap:butt;stroke-linejoin:miter;marker-start:none;marker-end:none;stroke-miterlimit:4;stroke-dasharray:1, 1;stroke-dashoffset:0;stroke-opacity:1" />
    <path
       d="M 225,92.362183 L 155,92.362183"
       id="path11729"
       style="fill:none;fill-opacity:1;fill-rule:evenodd;stroke:#0000ff;stroke-width:1px;stroke-linecap:butt;stroke-linejoin:miter;marker-start:none;marker-mid:none;marker-end:url(#Arrow2Mend6);stroke-opacity:1" />
    <path
       d="M 155,92.362183 L 130,92.362183"
       id="path11731"
       style="fill:none;fill-opacity:0.75;fill-rule:evenodd;stroke:#000000;stroke-width:1;stroke-linecap:butt;stroke-linejoin:miter;marker-start:none;marker-end:url(#Arrow2Mend);stroke-miterlimit:4;stroke-dasharray:1, 1;stroke-dashoffset:0;stroke-opacity:1" />
    <path
       d="M 265,187.36218 L 265,157.36218"
       id="path11733"
       style="fill:none;fill-opacity:0.75;fill-rule:evenodd;stroke:#000000;stroke-width:1px;stroke-linecap:butt;stroke-linejoin:miter;marker-end:url(#Arrow2Mend);stroke-opacity:1" />
    <path
       d="M 225,87.362183 L 265,87.362183 L 265,27.362183 L 275,27.362183"
       id="path25281"
       style="fill:none;fill-opacity:0.75;fill-rule:evenodd;stroke:#000000;stroke-width:1;stroke-linecap:butt;stroke-linejoin:miter;marker-end:url(#Arrow2Mend);stroke-miterlimit:4;stroke-dasharray:1, 1;stroke-dashoffset:0;stroke-opacity:1" />
    <text
       x="175"
       y="92.362183"
       id="text28844"
       xml:space="preserve"
       style="font-size:12px;font-style:normal;font-variant:normal;font-weight:normal;font-stretch:normal;text-align:start;line-height:125%;writing-mode:lr-tb;text-anchor:start;opacity:1;fill:#000000;fill-opacity:1;stroke:none;stroke-width:1px;stroke-linecap:butt;stroke-linejoin:miter;stroke-opacity:1;display:inline;font-family:Arial"><tspan
         x="175"
         y="92.362183"
         id="tspan28846"
         style="font-size:8px" /><tspan
         x="175"
         y="102.36218"
         id="tspan28850"
         style="font-size:8px;font-style:normal;font-weight:normal;fill:#0000c8;fill-opacity:1;-inkscape-font-specification:Arial">data</tspan></text>
    <text
       x="245"
       y="162.36218"
       id="text28852"
       xml:space="preserve"
       style="font-size:12px;font-style:normal;font-variant:normal;font-weight:normal;font-stretch:normal;text-align:start;line-height:125%;writing-mode:lr-tb;text-anchor:start;opacity:1;fill:#000000;fill-opacity:1;stroke:none;stroke-width:1px;stroke-linecap:butt;stroke-linejoin:miter;stroke-opacity:1;display:inline;font-family:Arial"><tspan
         x="245"
         y="162.36218"
         id="tspan28854"
         style="font-size:8px" /><tspan
         x="245"
         y="172.36218"
         id="tspan28858"
         style="font-size:8px;font-style:normal;fill:#0000c8;fill-opacity:1;-inkscape-font-specification:Arial">data</tspan></text>
  </g>
</svg>
