/* XPM */
static char *sicon[] = {
/* width height num_colors chars_per_pixel */
"    16    16       71            2",
/* colors */
".. c #000afb",
".# c #f795a1",
".a c #f6c7ce",
".b c #f8dedd",
".c c #cc4f5e",
".d c #bfb1a5",
".e c #c6dac7",
".f c #dfacb1",
".g c #aec6b0",
".h c #afdbbe",
".i c #faeae7",
".j c #dec4a8",
".k c #aeaf91",
".l c #d5d7b9",
".m c #d57f5e",
".n c #97c7a7",
".o c #ee9678",
".p c #be7b58",
".q c #dea0a4",
".r c #af5937",
".s c #f7b9a2",
".t c #c5e5ce",
".u c #dfa285",
".v c #dfb9a5",
".w c #f8e8d9",
".x c #acad83",
".y c #f9f3f1",
".z c #f6c5b9",
".A c #f6dcce",
".B c #bf5865",
".C c #c9d6b7",
".D c #bbe5c9",
".E c #4b9166",
".F c #d3e9da",
".G c #c07178",
".H c #c6bb97",
".I c #ebad90",
".J c #a3dab7",
".K c #dfb58d",
".L c #888b67",
".M c #67a07b",
".N c #a35733",
".O c #c9ceaf",
".P c #b0e2c1",
".Q c #b2b68f",
".R c #f7b792",
".S c #bbdbc5",
".T c #e1e7d1",
".U c #d57550",
".V c #cc5967",
".W c #9f4b28",
".X c #e88994",
".Y c #f7f2e2",
".Z c #bb653f",
".0 c #a3a385",
".1 c #eba183",
".2 c #bbc5ae",
".3 c #cb6571",
".4 c #fbb1a3",
".5 c #ebd1cf",
".6 c #ebead8",
".7 c #a3aa80",
".8 c #bbbb98",
".9 c #9a9e75",
"#. c #d3f3e2",
"## c #ebfbf0",
"#a c #8bc6a0",
"#b c #8bcea7",
"#c c #ebf3de",
"#d c #c5edd3",
"#e c #aed5ba",
/* pixels */
"................................",
"................................",
".............M.E.M##.......b.w..",
".........S...........t.F.....I..",
"...........V.......5.G...n.y...j",
".........y...Y.Q.8.Q.y.d...i...m",
"...........9.6.s.R.j.O.y.##a...Y",
".....c...L....#e.....K.H.u.F....",
"...........O#b.........1.X#.....",
".........s.l.e.2.....6.I.g.D....",
".........o.0.D.s.x.k.C.z.e.T....",
".........U...J.t.I.w.4.t.h.....r",
".....B.......l.F.P#d.P#c.......y",
".....q.....Z.....7.9.O.......v..",
".......3.....p.d.........A.y....",
".........a.......f.W.N.........."
};
