/* XPM */
static char*compound[]={
"32 32 3 1",
"# c #008000",
"a c #000080",
". c None",
"................................",
"................................",
"................................",
"................................",
"................................",
".............#######............",
"...........##.......##..........",
"..........#...........#.........",
".........#.............#........",
"........#...............#.......",
".......#...aaaa.....aaa..#......",
"......#....aaaaa...aaaaa..#.....",
"......#....aaaaa...aaaaa..#.....",
".....#.....aaaaa...aaaaa...#....",
".....#......aaa.....aaa....#....",
".....#.....................#....",
".....#.....................#....",
".....#.....................#....",
".....#....aaa......aaa.....#....",
".....#...aaaaa....aaaaa....#....",
"......#..aaaaa....aaaaa...#.....",
"......#..aaaaa....aaaaa...#.....",
".......#..aaa......aaa...#......",
"........#...............#.......",
".........#.............#........",
"..........#...........#.........",
"...........##.......##..........",
".............#######............",
"................................",
"................................",
"................................",
"................................"};
