/* XPM */
static char*generalization[]={
"32 32 7 1",
"a c #c0c0c0",
"# c #000000",
"e c #0000c0",
"b c #ffff00",
". c None",
"c c #c00000",
"d c #00c000",
"................................",
"................................",
"................................",
"..............###...............",
".............#...#..............",
"............#aaaaa#a............",
"...........#a...aaa#aa..........",
"..........a#...aaaa#..a.........",
".........a.#..bbaaa#a..a........",
"........a...#babba#aa...a.......",
".......a...abbabbbaaaaa..a......",
"......a....bba#b#bbaaaaa..a.....",
"......a....baaabbabaaaaa..a.....",
".....a....bbaaaab..baaaa...a....",
".....a....b.aaa.b...baa....a....",
".....a...bb.....b....bb....a....",
".....a...b......b.....bb...a....",
".....a..bb......bb.....bb..a....",
".....cccb.aaa....bddaa...bba....",
"....cccccaaaaa..dddddaa...bbee..",
"...cccccccaaaa.ddddddda...ebeee.",
"...cccccccaaaa.ddddddda..eeeeeee",
"...cccccccaaa..ddddddd...eeeeeee",
"....ccccc.......ddddd...aeeeeeee",
".....ccc.a.......ddd...a..eeeee.",
"..........a...........a....eee..",
"...........aa.......aa..........",
".............aaaaaaa............",
"................................",
"................................",
"................................",
"................................"};
