/* XPM */
static char *editdelete[] = {
/* width height num_colors chars_per_pixel */
"    16    16       65            2",
/* colors */
".. c #303030",
".# c #424242",
".a c #585858",
".b c #6b6b6b",
".c c #6d6d6d",
".d c #707070",
".e c #800000",
".f c #820202",
".g c #898989",
".h c #8f8984",
".i c #999999",
".j c #bcb7b1",
".k c #beb6af",
".l c #c79f80",
".m c #c8a487",
".n c #c9a68a",
".o c #caa98e",
".p c #cbac93",
".q c #cbad95",
".r c #cd4135",
".s c #cdb19c",
".t c #cdb29c",
".u c #ceb6a3",
".v c #cecece",
".w c #cfb7a5",
".x c #d0bbaa",
".y c #d1beae",
".z c #d1bfb0",
".A c #d3c3b7",
".B c #d5c9c0",
".C c #d7cfc9",
".D c #dedede",
".E c #e2e0de",
".F c #e7e0d9",
".G c #e8786c",
".H c #e9c7aa",
".I c #eaeaea",
".J c #ecceb4",
".K c #eed4be",
".L c #eed5be",
".M c #f0d9c5",
".N c #f0dbc7",
".O c #f1dbc7",
".P c #f2ddcb",
".Q c #f2e0d0",
".R c #f3e1d1",
".S c #f4e3d5",
".T c #f4e4d5",
".U c #f5e5d8",
".V c #f5e7da",
".W c #f6e7da",
".X c #f6e9de",
".Y c #f6e9df",
".Z c #f6f5f5",
".0 c #f7e9de",
".1 c #f7ebe1",
".2 c #f7ece2",
".3 c #faf1ea",
".4 c #faf1eb",
".5 c #fbf6f2",
".6 c #fcfcfc",
".7 c #fefcfb",
".8 c #fefdfc",
".9 c #ffc0c0",
"#. c #ffffff",
/* pixels */
"#.#..a.a.a.a.a.a.a.a.a.a#.#.#.#.",
"#.#..a.D.D.D.D.D.D.j.a.i.a#.#.#.",
"#.#..a.D#.#.#.#.#..I.c#..i.a#.#.",
"#.#..a.D#.#.#.#.#..6.d.v#..i..#.",
"#.#..a.D#.#.#.#.#.#..g.d.b.#..#.",
"#.#..a.D#.#.#.#.#.#..Z.E.j.h..#.",
"#.#..a.D#.#.#.#.#.#..7.5.F.k..#.",
"#.#..a.D#..G.9#.#..9.G.3.Y.z..#.",
"#.#..a.D#..f.r.9.9.r.f.X.S.x..#.",
"#.#..a.D#.#..f.r.r.f.0.T.P.u..#.",
"#.#..a.D#.#..9.r.r.9.W.R.O.t..#.",
"#.#..a.D.8.9.r.f.e.r.9.N.K.q..#.",
"#.#..a.D.9.G.f.2.V.f.r.L.J.o..#.",
"#.#..a.D.4.f.1.U.Q.M.f.J.H.m..#.",
"#.#..a.C.C.C.B.A.y.w.s.p.n.l..#.",
"#.#..a.a......................#."
};
